0
SECTION
2
HEADER
9
$INSUNITS
70
4
9
$ACADVER
1
AC1014
9
$HANDSEED
5
FFFF
0
ENDSEC
0
SECTION
2
TABLES
0
TABLE
2
VPORT
5
8
100
AcDbSymbolTable
0
ENDTAB
0
TABLE
2
LTYPE
5
5
100
AcDbSymbolTable
0
LTYPE
5
14
100
AcDbSymbolTableRecord
100
AcDbLinetypeTableRecord
2
BYBLOCK
70
0
0
LTYPE
5
15
100
AcDbSymbolTableRecord
100
AcDbLinetypeTableRecord
2
BYLAYER
70
0
0
ENDTAB
0
TABLE
2
LAYER
5
2
100
AcDbSymbolTable
70
2
0
LAYER
5
50
100
AcDbSymbolTableRecord
100
AcDbLayerTableRecord
2
0
70
0
6
CONTINUOUS
0
ENDTAB
0
TABLE
2
STYLE
5
3
100
AcDbSymbolTable
70
1
0
STYLE
5
11
100
AcDbSymbolTableRecord
100
AcDbTextStyleTableRecord
2
STANDARD
70
0
0
ENDTAB
0
TABLE
2
VIEW
5
6
100
AcDbSymbolTable
70
0
0
ENDTAB
0
TABLE
2
UCS
5
7
100
AcDbSymbolTable
70
0
0
ENDTAB
0
TABLE
2
APPID
5
9
100
AcDbSymbolTable
70
2
0
APPID
5
12
100
AcDbSymbolTableRecord
100
AcDbRegAppTableRecord
2
ACAD
70
0
0
ENDTAB
0
TABLE
2
DIMSTYLE
5
A
100
AcDbSymbolTable
70
1
0
ENDTAB
0
TABLE
2
BLOCK_RECORD
5
1
100
AcDbSymbolTable
70
1
0
BLOCK_RECORD
5
1F
100
AcDbSymbolTableRecord
100
AcDbBlockTableRecord
2
*MODEL_SPACE
0
BLOCK_RECORD
5
1B
100
AcDbSymbolTableRecord
100
AcDbBlockTableRecord
2
*PAPER_SPACE
0
ENDTAB
0
ENDSEC
0
SECTION
2
BLOCKS
0
BLOCK
5
20
100
AcDbEntity
100
AcDbBlockBegin
2
*MODEL_SPACE
0
ENDBLK
5
21
100
AcDbEntity
100
AcDbBlockEnd
0
BLOCK
5
1C
100
AcDbEntity
100
AcDbBlockBegin
2
*PAPER_SPACE
0
ENDBLK
5
1D
100
AcDbEntity
100
AcDbBlockEnd
0
ENDSEC
0
SECTION
2
ENTITIES
0
LWPOLYLINE
5
100
100
AcDbEntity
8
0
100
AcDbPolyline
90
4
70
1
43
0.0
10
50.946080001771378
20
113.05085993681982
42
0.011977766070419036
10
45.473567816339582
20
115.36097533418359
42
-0.99999999999999989
10
46.390373619084279
20
117.68680144978183
42
-0.011977766070419612
10
51.973218711479987
20
115.33011114521341
42
-0.99999999999999989
0
LWPOLYLINE
5
101
100
AcDbEntity
8
0
100
AcDbPolyline
90
4
70
1
43
0.0
10
-64.100000000000037
20
-13.374999999999989
10
-66.099999999999994
20
-13.374999999999982
42
-0.99999999999999989
10
-66.100000000000023
20
-12.124999999999986
10
-64.099999999999994
20
-12.124999999999982
42
-0.99999999999999989
0
CIRCLE
5
102
100
AcDbEntity
8
0
100
AcDbCircle
10
-105.10000000000002
20
-16.249999999999986
30
0
40
3.499999999999996
210
0
220
-0
230
1
0
LWPOLYLINE
5
103
100
AcDbEntity
8
0
100
AcDbPolyline
90
4
70
1
43
0.0
10
-64.100000000000023
20
-20.374999999999982
10
-66.099999999999994
20
-20.374999999999986
42
-0.99999999999999989
10
-66.100000000000023
20
-19.124999999999993
10
-64.100000000000023
20
-19.124999999999964
42
-0.99999999999999989
0
LWPOLYLINE
5
104
100
AcDbEntity
8
0
100
AcDbPolyline
90
4
70
1
43
0.0
10
-24.100000000000019
20
-13.374999999999988
10
-26.100000000000012
20
-13.374999999999984
42
-0.99999999999999989
10
-26.100000000000012
20
-12.124999999999984
10
-24.099999999999994
20
-12.124999999999979
42
-0.99999999999999989
0
LWPOLYLINE
5
105
100
AcDbEntity
8
0
100
AcDbPolyline
90
4
70
1
43
0.0
10
-90.100000000000051
20
-12.124999999999988
10
-88.100000000000009
20
-12.124999999999988
42
-0.99999999999999989
10
-88.100000000000009
20
-13.374999999999988
10
-90.09999999999998
20
-13.374999999999988
42
-0.99999999999999989
0
LWPOLYLINE
5
106
100
AcDbEntity
8
0
100
AcDbPolyline
90
4
70
1
43
0.0
10
-90.100000000000023
20
-19.124999999999986
10
-88.099999999999966
20
-19.124999999999982
42
-0.99999999999999989
10
-88.100000000000037
20
-20.374999999999982
10
-90.100000000000023
20
-20.374999999999986
42
-0.99999999999999989
0
LWPOLYLINE
5
107
100
AcDbEntity
8
0
100
AcDbPolyline
90
4
70
1
43
0.0
10
-24.100000000000019
20
-20.374999999999986
10
-26.100000000000026
20
-20.374999999999986
42
-0.99999999999999989
10
-26.100000000000016
20
-19.124999999999986
10
-24.100000000000009
20
-19.124999999999986
42
-0.99999999999999989
0
LWPOLYLINE
5
108
100
AcDbEntity
8
0
100
AcDbPolyline
90
4
70
1
43
0.0
10
4.2499999999999964
20
-10.000000000000034
10
-4.2500000000000178
20
-10.000000000000034
10
-4.25
20
9.9999999999999662
10
4.25
20
9.9999999999999662
0
LWPOLYLINE
5
109
100
AcDbEntity
8
0
100
AcDbPolyline
90
4
70
1
43
0.0
10
-29.900000000000002
20
-4.2499999999999938
10
-120.10000000000002
20
-4.2499999999999769
10
-120.10000000000002
20
4.250000000000024
10
-29.900000000000002
20
4.2500000000000018
0
LWPOLYLINE
5
110
100
AcDbEntity
8
0
100
AcDbPolyline
90
16
70
1
43
0.0
10
4.250000000000016
20
105.75000000000001
10
60.499999999998558
20
105.7500000000002
42
-0.4142135623730927
10
72.499999999998607
20
93.750000000000341
10
72.499999999999119
20
52.250000000000362
42
-0.41421356237309764
10
60.499999999999162
20
40.250000000000206
10
4.2499999999999982
20
40.250000000000014
10
4.25
20
29.900000000000002
10
-4.2499999999999956
20
29.900000000000002
10
-4.2499999999999982
20
40.249999999999979
10
-60.499999999999396
20
40.24999999999978
42
-0.4142135623730846
10
-72.499999999999446
20
52.249999999999311
10
-72.500000000001066
20
93.749999999999318
42
-0.41421356237310525
10
-60.500000000001116
20
105.74999999999977
10
-4.2499999999999893
20
105.75
10
-4.2499999999999849
20
120.10000000000002
10
4.250000000000016
20
120.10000000000002
0
LWPOLYLINE
5
111
100
AcDbEntity
8
0
100
AcDbPolyline
90
4
70
1
43
0.0
10
29.900000000000002
20
4.2499999999999973
10
120.10000000000002
20
4.249999999999992
10
120.10000000000002
20
-4.2500000000000089
10
29.900000000000002
20
-4.2499999999999973
0
LWPOLYLINE
5
112
100
AcDbEntity
8
0
100
AcDbPolyline
90
16
70
1
43
0.0
10
4.2499999999999982
20
-40.250000000000014
10
60.499999999999162
20
-40.250000000000206
42
-0.41421356237309764
10
72.499999999999119
20
-52.250000000000362
10
72.499999999998607
20
-93.750000000000313
42
-0.4142135623730927
10
60.499999999998558
20
-105.7500000000002
10
4.250000000000016
20
-105.75000000000001
10
4.2499999999999991
20
-120.10000000000002
10
-4.2500000000000018
20
-120.10000000000002
10
-4.2499999999999893
20
-105.75
10
-60.500000000001116
20
-105.74999999999982
42
-0.41421356237310525
10
-72.50000000000108
20
-93.749999999999346
10
-72.499999999999446
20
-52.249999999999304
42
-0.4142135623730846
10
-60.499999999999403
20
-40.249999999999773
10
-4.2499999999999982
20
-40.249999999999979
10
-4.2499999999999964
20
-29.900000000000002
10
4.2499999999999991
20
-29.900000000000002
0
LWPOLYLINE
5
113
100
AcDbEntity
8
0
100
AcDbPolyline
90
4
70
1
43
0.0
10
94.722976652125908
20
83.843948464748564
42
0.011977766070420195
10
90.598966684778773
20
88.284071245321186
42
0.9999999925494194
10
88.808473272044296
20
86.539326754314089
42
-0.011977766070419057
10
92.850981066123637
20
82.186953435808192
42
0.99999999999999989
0
LWPOLYLINE
5
114
100
AcDbEntity
8
0
100
AcDbPolyline
90
4
70
1
43
0.0
10
119.34949203166057
20
33.640730547744212
42
0.011977766070420195
10
117.60148006812052
20
39.317831651666715
42
-0.99999999999999989
10
119.9724776501285
20
40.110529870447003
42
-0.011977766070420167
10
121.75573179035284
20
34.318971082978024
42
-0.99999999999999989
0
LWPOLYLINE
5
115
100
AcDbEntity
8
0
100
AcDbPolyline
90
4
70
1
43
0.0
10
119.97247765012852
20
-40.11052987044701
42
0.011977766070419615
10
121.75573179035271
20
-34.31897108297828
42
0.99999999999999989
10
119.34949203166063
20
-33.640730547744148
42
-0.011977766070420167
10
117.60148006812052
20
-39.317831651666886
42
0.99999999999999989
0
LWPOLYLINE
5
116
100
AcDbEntity
8
0
100
AcDbPolyline
90
4
70
1
43
0.0
10
88.808473272043997
20
-86.539326754314359
42
0.011977766070419615
10
92.850981066123538
20
-82.186953435808306
42
-0.99999999999999989
10
94.722976652125723
20
-83.843948464748678
42
-0.011977766070419612
10
90.598966684778972
20
-88.284071245321115
42
-0.99999999999999989
0
LWPOLYLINE
5
117
100
AcDbEntity
8
0
100
AcDbPolyline
90
4
70
1
43
0.0
10
25.249500998002659
20
-123.95447833519552
42
0.011977766070419036
10
31.156765105573353
20
-122.60304232829918
42
0.99999999999999989
10
30.541018759616417
20
-120.18005730205863
42
-0.011977766070419612
10
24.750499001996907
20
-121.50478508747506
42
0.99999999999999989
0
LWPOLYLINE
5
118
100
AcDbEntity
8
0
100
AcDbPolyline
90
4
70
1
43
0.0
10
-30.541018759616531
20
-120.18005730205863
42
0.011977766070419615
10
-24.750499001996932
20
-121.50478508747506
42
-0.99999999999999989
10
-25.249500998002855
20
-123.95447833519549
42
-0.011977766070419612
10
-31.156765105573822
20
-122.60304232829911
42
-0.99999999999999989
0
LWPOLYLINE
5
119
100
AcDbEntity
8
0
100
AcDbPolyline
90
4
70
1
43
0.0
10
-94.72297665212588
20
-83.843948464748621
42
0.011977766070419615
10
-90.598966684778972
20
-88.28407124532103
42
0.99999999999999989
10
-88.808473272044196
20
-86.539326754314331
42
-0.011977766070419612
10
-92.850981066123609
20
-82.186953435808263
42
0.99999999999999989
0
LWPOLYLINE
5
120
100
AcDbEntity
8
0
100
AcDbPolyline
90
4
70
1
43
0.0
10
-119.34949203166057
20
-33.640730547744283
42
0.011977766070419615
10
-117.60148006812051
20
-39.317831651666779
42
-0.99999999999999989
10
-119.97247765012865
20
-40.110529870446776
42
-0.011977766070419612
10
-121.75573179035283
20
-34.318971082978081
42
-0.99999999999999989
0
LWPOLYLINE
5
121
100
AcDbEntity
8
0
100
AcDbPolyline
90
4
70
1
43
0.0
10
-119.9724776501285
20
40.110529870446939
42
0.011977766070421355
10
-121.7557317903529
20
34.318971082977527
42
0.99999999999999989
10
-119.34949203166072
20
33.640730547744127
42
-0.011977766070420167
10
-117.60148006812048
20
39.317831651666829
42
0.99999999999999989
0
LWPOLYLINE
5
122
100
AcDbEntity
8
0
100
AcDbPolyline
90
4
70
1
43
0.0
10
-88.80847327204404
20
86.539326754314317
42
0.011977766070418457
10
-92.850981053778014
20
82.18695344975572
42
-1.0000000074505806
10
-94.722976652125382
20
83.843948464749161
42
-0.011977766070418502
10
-90.598966684778972
20
88.284071245321087
42
-0.99999999999999989
0
LWPOLYLINE
5
123
100
AcDbEntity
8
0
100
AcDbPolyline
90
4
70
1
43
0.0
10
-25.249500998002681
20
123.95447833519553
42
0.011977766070419615
10
-31.156765105573538
20
122.60304232829915
42
0.99999999999999989
10
-30.541018759616282
20
120.18005730205877
42
-0.011977766070419057
10
-24.750499001996921
20
121.50478508747506
42
0.99999999999999989
0
LWPOLYLINE
5
124
100
AcDbEntity
8
0
100
AcDbPolyline
90
4
70
1
43
0.0
10
30.54101875961652
20
120.18005730205863
42
0.011977766070419036
10
24.750499001996921
20
121.50478508747506
42
-0.99999999999999989
10
25.249500998002734
20
123.95447833519555
42
-0.011977766070419612
10
31.156765105573811
20
122.60304232829915
42
-0.99999999999999989
0
CIRCLE
5
125
100
AcDbEntity
8
0
100
AcDbCircle
10
-4.0140243591924682e-13
20
-1.2279291254165685e-12
30
0
40
140
210
-0
220
0
230
1
0
ENDSEC
0
SECTION
2
OBJECTS
0
DICTIONARY
5
C
100
AcDbDictionary
3
ACAD_GROUP
350
D
3
ACAD_MLINESTYLE
350
17
0
DICTIONARY
5
D
100
AcDbDictionary
0
DICTIONARY
5
1A
330
C
100
AcDbDictionary
0
DICTIONARY
5
17
100
AcDbDictionary
0
ENDSEC
0
EOF
