0
SECTION
2
HEADER
9
$INSUNITS
70
4
9
$ACADVER
1
AC1014
9
$HANDSEED
5
FFFF
0
ENDSEC
0
SECTION
2
TABLES
0
TABLE
2
VPORT
5
8
100
AcDbSymbolTable
0
ENDTAB
0
TABLE
2
LTYPE
5
5
100
AcDbSymbolTable
0
LTYPE
5
14
100
AcDbSymbolTableRecord
100
AcDbLinetypeTableRecord
2
BYBLOCK
70
0
0
LTYPE
5
15
100
AcDbSymbolTableRecord
100
AcDbLinetypeTableRecord
2
BYLAYER
70
0
0
ENDTAB
0
TABLE
2
LAYER
5
2
100
AcDbSymbolTable
70
2
0
LAYER
5
50
100
AcDbSymbolTableRecord
100
AcDbLayerTableRecord
2
0
70
0
6
CONTINUOUS
0
ENDTAB
0
TABLE
2
STYLE
5
3
100
AcDbSymbolTable
70
1
0
STYLE
5
11
100
AcDbSymbolTableRecord
100
AcDbTextStyleTableRecord
2
STANDARD
70
0
0
ENDTAB
0
TABLE
2
VIEW
5
6
100
AcDbSymbolTable
70
0
0
ENDTAB
0
TABLE
2
UCS
5
7
100
AcDbSymbolTable
70
0
0
ENDTAB
0
TABLE
2
APPID
5
9
100
AcDbSymbolTable
70
2
0
APPID
5
12
100
AcDbSymbolTableRecord
100
AcDbRegAppTableRecord
2
ACAD
70
0
0
ENDTAB
0
TABLE
2
DIMSTYLE
5
A
100
AcDbSymbolTable
70
1
0
ENDTAB
0
TABLE
2
BLOCK_RECORD
5
1
100
AcDbSymbolTable
70
1
0
BLOCK_RECORD
5
1F
100
AcDbSymbolTableRecord
100
AcDbBlockTableRecord
2
*MODEL_SPACE
0
BLOCK_RECORD
5
1B
100
AcDbSymbolTableRecord
100
AcDbBlockTableRecord
2
*PAPER_SPACE
0
ENDTAB
0
ENDSEC
0
SECTION
2
BLOCKS
0
BLOCK
5
20
100
AcDbEntity
100
AcDbBlockBegin
2
*MODEL_SPACE
0
ENDBLK
5
21
100
AcDbEntity
100
AcDbBlockEnd
0
BLOCK
5
1C
100
AcDbEntity
100
AcDbBlockBegin
2
*PAPER_SPACE
0
ENDBLK
5
1D
100
AcDbEntity
100
AcDbBlockEnd
0
ENDSEC
0
SECTION
2
ENTITIES
0
LWPOLYLINE
5
100
100
AcDbEntity
8
0
100
AcDbPolyline
90
78
70
1
43
0.0
10
122.2251482265544
20
5.0000000000000089
42
0.511918293852485
10
124.12251482265543
20
7.6324555320336955
10
119.99999999999993
20
20.000000000000004
10
120.00000000000003
20
95
42
0.41421356237309176
10
112.00000000000004
20
103
10
110.5000000000001
20
103.00000000000003
10
110.50000000000011
20
95.000000000000014
10
56.250000000000007
20
95
10
56.250000000000014
20
94.299999999999997
42
-0.41421356237309503
10
55.750000000000014
20
93.799999999999983
10
53.250000000000014
20
93.800000000000026
42
-0.41421356237309503
10
52.750000000000014
20
94.300000000000011
10
52.750000000000014
20
95
10
12.750000000000004
20
95
10
12.750000000000011
20
94.299999999999997
42
-0.41421356237309503
10
12.250000000000004
20
93.799999999999983
10
9.2500000000000071
20
93.800000000000011
10
9.2500000000000071
20
95
10
4.2500000000000098
20
95
10
4.2500000000000098
20
87.400000000000006
10
-4.2499999999999911
20
87.400000000000006
10
-4.2499999999999911
20
95
10
-110.49999999999991
20
95.000000000000014
10
-110.49999999999991
20
102.99999999999999
10
-111.99999999999991
20
102.99999999999999
42
0.4142135623730937
10
-119.99999999999993
20
94.999999999999986
10
-120
20
20.811388300841731
42
-0.08061157167053648
10
-120.25658350974743
20
19.230249470757524
10
-124.12251482265543
20
7.6324555320336973
42
0.51191829385248511
10
-122.2251482265544
20
5.000000000000016
10
-120
20
5.0000000000000009
10
-119.99999999999993
20
-20
42
0.41421356237309553
10
-95.000000000000014
20
-45.000000000000007
10
-60.113252350374104
20
-45.000000000000007
42
0.33690585339467671
10
-36.025304609625579
20
-26.691096594652368
10
-30.364820903700533
20
-6.313355253322146
42
0.067840501005514892
10
-29.99999999999995
20
-3.6369166154611978
10
-29.999999999999947
20
5.0000000000000009
10
-4.2499999999999893
20
4.9999999999999991
10
-4.2499999999999902
20
12.999999999999979
10
-109.99999999999993
20
12.999999999999986
42
-0.41421356237309503
10
-111.99999999999991
20
14.999999999999979
10
-111.99999999999991
20
39.999999999999972
42
-0.41421356237309503
10
-109.99999999999993
20
41.999999999999972
10
-105.99999999999997
20
41.999999999999972
42
0.41421356237309681
10
-99.999999999999986
20
47.999999999999972
10
-100
20
77.999999999999986
42
-0.41421356237309503
10
-98
20
79.999999999999986
10
9.2500000000000071
20
79.999999999999986
10
9.25
20
80.69999999999996
42
-0.41421356237309503
10
9.7500000000000071
20
81.199999999999974
10
12.250000000000005
20
81.199999999999974
42
-0.41421356237309503
10
12.750000000000005
20
80.69999999999996
10
12.750000000000004
20
79.999999999999986
10
52.750000000000014
20
79.999999999999986
10
52.75
20
80.69999999999996
42
-0.41421356237309503
10
53.250000000000014
20
81.199999999999974
10
55.750000000000014
20
81.199999999999974
42
-0.41421356237309503
10
56.250000000000007
20
80.69999999999996
10
56.250000000000007
20
79.999999999999986
10
98
20
79.999999999999972
42
-0.41421356237309503
10
100
20
77.999999999999986
10
100
20
47.999999999999972
42
0.41421356237309681
10
106.00000000000001
20
41.999999999999972
10
109.99999999999993
20
41.999999999999964
42
-0.41421356237309503
10
111.99999999999991
20
39.999999999999972
10
111.99999999999991
20
14.999999999999982
42
-0.41421356237309537
10
109.99999999999993
20
12.99999999999998
10
4.2500000000000071
20
12.999999999999979
10
4.2500000000000098
20
5.0000000000000009
10
30.000000000000053
20
5.0000000000000009
10
30.000000000000053
20
-3.6369166154612054
42
0.067840501005517709
10
30.364820903700647
20
-6.3133552533221549
10
36.025304609625707
20
-26.691096594652379
42
0.33690585339467649
10
60.113252350374225
20
-45.000000000000007
10
95.000000000000014
20
-45.000000000000007
42
0.41421356237309537
10
120.00000000000001
20
-20.000000000000018
10
120
20
5
0
CIRCLE
5
101
100
AcDbEntity
8
0
100
AcDbCircle
10
-108
20
-7.0000000000000018
30
0
40
1.9999999999999929
210
0
220
0
230
1
0
CIRCLE
5
102
100
AcDbEntity
8
0
100
AcDbCircle
10
108
20
-7.0000000000000018
30
0
40
1.9999999999999929
210
0
220
-0
230
1
0
LWPOLYLINE
5
103
100
AcDbEntity
8
0
100
AcDbPolyline
90
4
70
1
43
0.0
10
112.00000000000003
20
78
10
112
20
49.999999999999972
42
-0.99999999999999989
10
108
20
49.999999999999972
10
108.00000000000004
20
78
42
-0.99999999999999989
0
LWPOLYLINE
5
104
100
AcDbEntity
8
0
100
AcDbPolyline
90
4
70
1
43
0.0
10
-108
20
78
10
-108.00000000000004
20
49.999999999999972
42
-0.99999999999999989
10
-112.00000000000003
20
49.999999999999972
10
-112
20
78
42
-0.99999999999999989
0
ENDSEC
0
SECTION
2
OBJECTS
0
DICTIONARY
5
C
100
AcDbDictionary
3
ACAD_GROUP
350
D
3
ACAD_MLINESTYLE
350
17
0
DICTIONARY
5
D
100
AcDbDictionary
0
DICTIONARY
5
1A
330
C
100
AcDbDictionary
0
DICTIONARY
5
17
100
AcDbDictionary
0
ENDSEC
0
EOF
