0
SECTION
2
HEADER
9
$INSUNITS
70
4
9
$ACADVER
1
AC1014
9
$HANDSEED
5
FFFF
0
ENDSEC
0
SECTION
2
TABLES
0
TABLE
2
VPORT
5
8
100
AcDbSymbolTable
0
ENDTAB
0
TABLE
2
LTYPE
5
5
100
AcDbSymbolTable
0
LTYPE
5
14
100
AcDbSymbolTableRecord
100
AcDbLinetypeTableRecord
2
BYBLOCK
70
0
0
LTYPE
5
15
100
AcDbSymbolTableRecord
100
AcDbLinetypeTableRecord
2
BYLAYER
70
0
0
ENDTAB
0
TABLE
2
LAYER
5
2
100
AcDbSymbolTable
70
2
0
LAYER
5
50
100
AcDbSymbolTableRecord
100
AcDbLayerTableRecord
2
0
70
0
6
CONTINUOUS
0
ENDTAB
0
TABLE
2
STYLE
5
3
100
AcDbSymbolTable
70
1
0
STYLE
5
11
100
AcDbSymbolTableRecord
100
AcDbTextStyleTableRecord
2
STANDARD
70
0
0
ENDTAB
0
TABLE
2
VIEW
5
6
100
AcDbSymbolTable
70
0
0
ENDTAB
0
TABLE
2
UCS
5
7
100
AcDbSymbolTable
70
0
0
ENDTAB
0
TABLE
2
APPID
5
9
100
AcDbSymbolTable
70
2
0
APPID
5
12
100
AcDbSymbolTableRecord
100
AcDbRegAppTableRecord
2
ACAD
70
0
0
ENDTAB
0
TABLE
2
DIMSTYLE
5
A
100
AcDbSymbolTable
70
1
0
ENDTAB
0
TABLE
2
BLOCK_RECORD
5
1
100
AcDbSymbolTable
70
1
0
BLOCK_RECORD
5
1F
100
AcDbSymbolTableRecord
100
AcDbBlockTableRecord
2
*MODEL_SPACE
0
BLOCK_RECORD
5
1B
100
AcDbSymbolTableRecord
100
AcDbBlockTableRecord
2
*PAPER_SPACE
0
ENDTAB
0
ENDSEC
0
SECTION
2
BLOCKS
0
BLOCK
5
20
100
AcDbEntity
100
AcDbBlockBegin
2
*MODEL_SPACE
0
ENDBLK
5
21
100
AcDbEntity
100
AcDbBlockEnd
0
BLOCK
5
1C
100
AcDbEntity
100
AcDbBlockBegin
2
*PAPER_SPACE
0
ENDBLK
5
1D
100
AcDbEntity
100
AcDbBlockEnd
0
ENDSEC
0
SECTION
2
ENTITIES
0
LWPOLYLINE
5
100
100
AcDbEntity
8
0
100
AcDbPolyline
90
55
70
1
43
0.0
10
-87.5
20
64.999999999999986
10
-87.5
20
44.999999999999936
10
-90.5
20
44.999999999999936
10
-90.5
20
69.999999999999943
10
-75
20
69.999999999999986
10
-75
20
71.999999999999943
42
0.41421356237309503
10
-80.999999999999972
20
77.999999999999943
10
-93.821956916216863
20
77.999999999999943
42
0.33912102205896516
10
-98.650035708820212
20
74.299867367239301
10
-119.31231517041338
20
-2.4457420615355119
42
0.065843588456149293
10
-119.99999999999999
20
-7.6452115304929649
10
-120
20
-9.1886116991581464
42
-0.080611571670535023
10
-120.25658350974743
20
-10.769750529242328
10
-124.12251482265543
20
-22.367544467966315
42
0.51191829385248389
10
-122.2251482265544
20
-24.999999999999986
10
-119.99999999999999
20
-24.999999999999996
10
-120
20
-50.000000000000014
42
0.41421356237309481
10
-95.000000000000014
20
-75.000000000000028
10
-60.113252350374196
20
-75.000000000000028
42
0.33690585339467732
10
-36.025304609625685
20
-56.691096594652393
10
-30.364820903700604
20
-36.313355253322143
42
0.0678405010055151
10
-30.000000000000018
20
-33.636916615461196
10
-30.000000000000018
20
-25.000000000000032
10
-10
20
-25.00000000000005
10
-10
20
-40.000000000000057
42
0.99999999999999989
10
9.9999999999999982
20
-40.000000000000057
10
10
20
-25.00000000000005
10
30.000000000000018
20
-25.000000000000032
10
30.000000000000018
20
-33.636916615461203
42
0.0678405010055151
10
30.364820903700611
20
-36.31335525332215
10
36.025304609625678
20
-56.691096594652407
42
0.33690585339467682
10
60.113252350374189
20
-75.000000000000014
10
95.000000000000057
20
-75.000000000000028
42
0.4142135623730952
10
120.00000000000003
20
-50.000000000000028
10
119.99999999999999
20
-24.999999999999996
10
122.2251482265544
20
-24.999999999999996
42
0.51191829385248389
10
124.12251482265543
20
-22.367544467966315
10
119.99999999999999
20
-9.9999999999999929
10
120.00000000000003
20
-7.6452115304929613
42
0.065843588456141147
10
119.31231517041343
20
-2.4457420615354932
10
98.650035708820184
20
74.299867367239301
42
0.33912102205896366
10
93.82195691621682
20
77.999999999999943
10
81
20
77.999999999999943
42
0.41421356237309503
10
75
20
71.999999999999943
10
75
20
69.999999999999986
10
87.5
20
69.999999999999986
10
87.5
20
64.999999999999986
10
82
20
64.999999999999986
10
82
20
58.499999999999986
10
77.999999999999986
20
58.499999999999986
10
77.999999999999986
20
64.999999999999986
10
-77.999999999999986
20
64.999999999999986
10
-77.999999999999986
20
58.499999999999986
10
-82
20
58.499999999999986
10
-82
20
64.999999999999986
0
CIRCLE
5
101
100
AcDbEntity
8
0
100
AcDbCircle
10
0
20
-40.000000000000057
30
0
40
4.5
210
0
220
0
230
1
0
CIRCLE
5
102
100
AcDbEntity
8
0
100
AcDbCircle
10
-108
20
-37.000000000000036
30
0
40
1.9999999999999929
210
0
220
0
230
1
0
CIRCLE
5
103
100
AcDbEntity
8
0
100
AcDbCircle
10
108
20
-37.000000000000036
30
0
40
1.9999999999999929
210
0
220
-0
230
1
0
LWPOLYLINE
5
104
100
AcDbEntity
8
0
100
AcDbPolyline
90
16
70
1
43
0.0
10
-77.522123893805301
20
27.218785118900321
42
0.37828303840030647
10
-60
20
47.06469477309227
10
-60
20
47.999999999999964
42
-0.41421356237309503
10
-58
20
49.999999999999964
10
-4.2500000392135728
20
49.999999999999964
10
-4.2500000392135746
20
57.599999999999966
10
4.2499999607864263
20
57.599999999999966
10
4.2499999607864254
20
49.999999999999964
10
58.000000000000014
20
49.999999999999964
42
-0.4142135623730937
10
60.000000000000007
20
47.999999999999964
10
60
20
47.06469477309227
42
0.37828303840030664
10
77.522123893805343
20
27.218785118900325
42
-1.8157590944114741
10
38.337055731987618
20
-20.433734939759066
42
0.32368818664391458
10
33.588707202122905
20
-17.000000000000028
10
-33.588707202122905
20
-17.000000000000032
42
0.32368818664391397
10
-38.337055731987626
20
-20.433734939759066
42
-1.815759094411475
0
ENDSEC
0
SECTION
2
OBJECTS
0
DICTIONARY
5
C
100
AcDbDictionary
3
ACAD_GROUP
350
D
3
ACAD_MLINESTYLE
350
17
0
DICTIONARY
5
D
100
AcDbDictionary
0
DICTIONARY
5
1A
330
C
100
AcDbDictionary
0
DICTIONARY
5
17
100
AcDbDictionary
0
ENDSEC
0
EOF
